<?xml version="1.0" encoding="UTF-8" standalone="no"?>
<!-- Created with Inkscape (http://www.inkscape.org/) -->

<svg
   xmlns:dc="http://purl.org/dc/elements/1.1/"
   xmlns:cc="http://creativecommons.org/ns#"
   xmlns:rdf="http://www.w3.org/1999/02/22-rdf-syntax-ns#"
   xmlns:svg="http://www.w3.org/2000/svg"
   xmlns="http://www.w3.org/2000/svg"
   xmlns:sodipodi="http://sodipodi.sourceforge.net/DTD/sodipodi-0.dtd"
   xmlns:inkscape="http://www.inkscape.org/namespaces/inkscape"
   width="32mm"
   height="32mm"
   viewBox="0 0 32 32"
   version="1.1"
   id="svg8"
   inkscape:export-filename="D:\Github\info-projekt\assets\logo.png"
   inkscape:export-xdpi="500"
   inkscape:export-ydpi="500"
   inkscape:version="0.92.4 (5da689c313, 2019-01-14)"
   sodipodi:docname="logo.svg">
  <defs
     id="defs2" />
  <sodipodi:namedview
     id="base"
     pagecolor="#ffffff"
     bordercolor="#666666"
     borderopacity="1.0"
     inkscape:pageopacity="0.0"
     inkscape:pageshadow="2"
     inkscape:zoom="2.8"
     inkscape:cx="56.950965"
     inkscape:cy="43.754497"
     inkscape:document-units="mm"
     inkscape:current-layer="g921"
     showgrid="false"
     inkscape:window-width="1920"
     inkscape:window-height="1017"
     inkscape:window-x="1912"
     inkscape:window-y="-8"
     inkscape:window-maximized="1" />
  <metadata
     id="metadata5">
    <rdf:RDF>
      <cc:Work
         rdf:about="">
        <dc:format>image/svg+xml</dc:format>
        <dc:type
           rdf:resource="http://purl.org/dc/dcmitype/StillImage" />
        <dc:title></dc:title>
      </cc:Work>
    </rdf:RDF>
  </metadata>
  <g
     inkscape:label="Ebene 1"
     inkscape:groupmode="layer"
     id="layer1"
     transform="translate(0,-265)">
    <g
       id="g921"
       transform="translate(0.72005656)">
      <g
         id="g932"
         transform="matrix(1.0277958,0,0,1.0277958,-0.42471826,-7.8106198)">
        <g
           id="g910"
           transform="translate(0,0.52917255)">
          <path
             style="fill:#1b264f;fill-opacity:1;stroke-width:0.20572232"
             inkscape:connector-curvature="0"
             d="m 24.570829,271.60493 c 2.85954,3.22984 5.410497,7.03571 5.266491,11.29416 -0.144005,4.23788 -2.962401,8.90777 -7.241425,11.23244 -4.279025,2.32466 -10.018679,2.28352 -13.3719533,-0.26744 -3.3327018,-2.55096 -4.2790243,-7.6323 -5.1224861,-12.40506 -0.8434619,-4.79333 -1.6046342,-9.29865 0.3085835,-12.28162 1.9132177,-3.00355 6.4596819,-4.50532 10.3066899,-3.94987 3.847007,0.55545 7.015132,3.16813 9.8541,6.37739 z"
             id="path848" />
          <path
             style="fill:#274690;fill-opacity:1;stroke-width:0.22233275"
             inkscape:connector-curvature="0"
             d="m 22.398719,274.18921 c 3.490624,2.93479 7.359213,6.95901 6.692215,10.00497 -0.666998,3.02372 -5.891817,5.06919 -10.494105,6.60329 -4.602288,1.53409 -8.582045,2.60129 -11.7169352,1.31176 -3.1571222,-1.28954 -5.4693834,-4.93579 -6.02521497,-8.60428 -0.55583237,-3.69072 0.60029847,-7.42591 2.89032577,-10.07167 2.2677928,-2.64576 5.647249,-4.22433 8.8710734,-4.11316 3.223825,0.1334 6.31425,1.93429 9.782641,4.86909 z"
             id="path837" />
          <path
             style="fill:#7c9299;fill-opacity:1;stroke-width:0.17866109"
             inkscape:connector-curvature="0"
             d="m 27.361436,270.01899 c 1.51862,2.48339 0,6.80699 -0.982636,11.29138 -0.982635,4.4844 -1.429289,9.16532 -4.002009,11.00553 -2.572719,1.84021 -7.271506,0.85758 -10.433808,-1.39355 -3.1444356,-2.25113 -4.788118,-5.77076 -5.5206281,-9.39758 -0.7503766,-3.62683 -0.6074482,-7.34297 1.2684934,-9.91569 1.8580758,-2.57272 5.4670297,-4.00201 9.5405037,-4.37719 4.055607,-0.3752 8.611465,0.28585 10.130084,2.7871 z"
             id="path859" />
        </g>
        <g
           id="g882"
           transform="translate(0.15591388,-0.32288)"
           style="fill:none;stroke:#f5f3f5;stroke-width:1;stroke-linecap:round;stroke-linejoin:round;stroke-miterlimit:4;stroke-dasharray:none;stroke-opacity:1">
          <path
             inkscape:connector-curvature="0"
             id="path874"
             d="m 17.546363,290.08047 v -3.65575"
             style="fill:none;stroke:#f5f3f5;stroke-width:0.99202049;stroke-linecap:round;stroke-linejoin:round;stroke-miterlimit:4;stroke-dasharray:none;stroke-opacity:1" />
          <path
             sodipodi:nodetypes="cccccc"
             inkscape:connector-curvature="0"
             id="path870"
             d="m 12.461442,286.37604 h 6.781964 v -5.99686 c 0.0096,-1.46279 -1.444018,-2.82713 -3.407687,-2.88985 -1.958268,0.0483 -3.396938,1.41673 -3.390982,2.88985 z"
             style="fill:none;stroke:#f5f3f5;stroke-width:1;stroke-linecap:round;stroke-linejoin:round;stroke-miterlimit:4;stroke-dasharray:none;stroke-opacity:1" />
          <path
             inkscape:connector-curvature="0"
             id="path872"
             d="m 14.103237,290.08422 v -3.69708"
             style="fill:none;stroke:#f5f3f5;stroke-width:1;stroke-linecap:round;stroke-linejoin:round;stroke-miterlimit:4;stroke-dasharray:none;stroke-opacity:1" />
          <path
             inkscape:connector-curvature="0"
             id="path876"
             d="m 15.835719,277.42251 v -4.86097"
             style="fill:none;stroke:#f5f3f5;stroke-width:1;stroke-linecap:round;stroke-linejoin:round;stroke-miterlimit:4;stroke-dasharray:none;stroke-opacity:1" />
        </g>
      </g>
    </g>
  </g>
</svg>
